PathFileType	4	(X/Y/Z)	C:/Users/opensim2020/Desktop/walking_exp_matlab/subject01_walking06_straight_04.trc	
DataRate	CameraRate	NumFrames	NumMarkers	Units	OrigDataRate	OrigDataStartFrame	OrigNumFrames	
100.00	100.00	7	43	mm	100.00	2790	212	
Frame#	Time	LFHD			RFHD			LBHD			RBHD			C7			T10			CLAV			STRN			RBAK			LSHO			LUPA			LELB			LFRM			LWRA			LWRB			LFIN			RSHO			RUPA			RELB			RFRM			RWRA			RWRB			RFIN			LASI			RASI			LPSI			RPSI			LTHI			LKNE			LTIB			LANK			LHEE			LTOE			RTHI			RKNE			RTIB			RANK			RHEE			RTOE			*39			*40			*41			*42			
		X1	Y1	Z1	X2	Y2	Z2	X3	Y3	Z3	X4	Y4	Z4	X5	Y5	Z5	X6	Y6	Z6	X7	Y7	Z7	X8	Y8	Z8	X9	Y9	Z9	X10	Y10	Z10	X11	Y11	Z11	X12	Y12	Z12	X13	Y13	Z13	X14	Y14	Z14	X15	Y15	Z15	X16	Y16	Z16	X17	Y17	Z17	X18	Y18	Z18	X19	Y19	Z19	X20	Y20	Z20	X21	Y21	Z21	X22	Y22	Z22	X23	Y23	Z23	X24	Y24	Z24	X25	Y25	Z25	X26	Y26	Z26	X27	Y27	Z27	X28	Y28	Z28	X29	Y29	Z29	X30	Y30	Z30	X31	Y31	Z31	X32	Y32	Z32	X33	Y33	Z33	X34	Y34	Z34	X35	Y35	Z35	X36	Y36	Z36	X37	Y37	Z37	X38	Y38	Z38	X39	Y39	Z39	X40	Y40	Z40	X41	Y41	Z41	X42	Y42	Z42	X43	Y43	Z43	

1	0.000	-1034.17688	1191.31335	1671.70227	-1146.86267	1164.04211	1675.18958	-1056.20459	1308.07654	1633.20789	-1175.31653	1283.21423	1636.64661	-1081.37988	1352.44543	1440.32544	-1079.01611	1396.03735	1147.42224	-1091.56946	1211.42834	1367.27429	-1087.22241	1172.90222	1212.67004	-1152.16541	1418.86926	1247.59729	-925.76080	1255.94470	1402.35510	-833.53735	1289.80884	1220.40332	-826.61938	1318.06665	1076.25793	-799.42657	1299.65674	965.27075	-822.66321	1256.10095	832.65088	-785.48346	1302.33081	843.18793	-782.21161	1271.85901	763.50690	-1237.57214	1285.45715	1394.97986	-1340.90747	1339.68713	1196.36584	-1356.87842	1324.32007	1072.37463	-1397.91528	1269.86523	967.24707	-1397.54456	1157.40234	880.44690	-1428.44922	1204.70923	868.19733	-1441.65784	1146.36316	809.07568	-984.65198	1213.77100	943.57355	-1202.19751	1238.41138	940.09180	-1014.88818	1404.51245	948.75476	-1158.26978	1420.21326	955.81812	-924.93158	1140.57471	633.28394	-941.21777	1113.29761	500.63593	-931.47186	1173.94678	320.78192	-979.75244	1217.85107	106.36636	-1037.76282	1259.80847	77.92389	-966.12665	1083.59644	57.67527	-1252.05029	1326.83569	611.59369	-1230.02954	1333.31238	452.06830	-1231.36145	1408.04492	290.88232	-1179.41956	1447.53027	87.41200	-1122.11023	1489.94202	51.74206	-1204.63184	1311.87646	41.28844	-1126.03821	1176.66895	1710.01440	-3101.88843	1973.21387	1023.43420	-3140.55054	2012.67761	1022.03778			 
2	0.010	-1034.53711	1182.09644	1670.76416	-1146.98718	1154.41772	1674.45630	-1056.98254	1298.79663	1632.36865	-1176.01331	1273.49841	1636.02942	-1082.74084	1343.15198	1439.59973	-1080.66870	1387.23035	1146.80261	-1092.47583	1202.18823	1366.39368	-1088.26892	1163.96814	1211.75024	-1154.14636	1409.48706	1247.12854	-926.71667	1247.45276	1401.39148	-834.57849	1283.19470	1219.70068	-827.64795	1312.68774	1075.90283	-799.83917	1295.99231	964.99176	-822.09442	1253.71375	831.71570	-785.07233	1299.89331	842.86334	-781.65216	1270.60242	762.69183	-1238.52856	1275.45801	1394.57642	-1342.81104	1328.77466	1196.18579	-1359.52429	1312.73840	1072.28760	-1400.85046	1256.67114	968.00092	-1400.22839	1143.19031	882.87823	-1431.37012	1190.16919	869.98767	-1444.60242	1130.90857	811.84418	-986.48633	1205.40466	942.52728	-1203.70544	1229.80457	939.12506	-1016.45923	1395.83057	948.19983	-1159.74316	1411.40808	955.51520	-925.32977	1133.35962	631.94159	-942.22626	1106.29480	499.47800	-932.35803	1158.20728	317.23083	-981.42657	1188.30310	99.72310	-1038.92358	1229.33777	69.75529	-968.17017	1051.58459	58.39610	-1252.90515	1321.32239	611.21112	-1230.85632	1329.96362	451.82162	-1231.63074	1406.20239	291.23529	-1179.44348	1447.17627	88.06670	-1122.12659	1489.09509	52.46133	-1204.74902	1311.83289	41.21002	-1126.16736	1167.11768	1709.30115	-3101.75928	1973.15601	1023.36719	-3140.57593	2012.57690	1022.09943			 
3	0.020	-1034.63611	1172.89331	1669.78601	-1147.11108	1144.81372	1673.68616	-1057.66821	1289.55737	1631.44849	-1176.56812	1263.79224	1635.33777	-1083.95349	1333.86487	1438.82214	-1082.12622	1378.31055	1146.10364	-1093.02930	1192.89429	1365.42480	-1089.15308	1155.01196	1210.67676	-1155.93335	1400.06628	1246.56042	-927.53821	1238.77405	1400.24463	-835.52716	1276.48828	1218.89453	-828.61554	1307.31580	1075.58069	-799.91565	1292.17065	964.55499	-821.40491	1250.96960	830.80023	-785.00433	1297.45923	842.63660	-781.01245	1269.04236	762.04053	-1239.52295	1265.41687	1394.03406	-1344.61987	1317.88110	1196.08508	-1361.95422	1301.28540	1072.16455	-1403.29456	1243.86182	968.70367	-1402.70276	1129.19971	885.15100	-1434.03247	1175.87170	871.68445	-1447.39648	1115.81494	814.47382	-987.89960	1196.45496	941.58826	-1205.06860	1221.08105	938.07318	-1017.87524	1387.01660	947.55450	-1161.06177	1402.51746	955.04315	-925.86169	1126.52600	630.26343	-943.41193	1099.63647	497.86624	-933.06329	1142.71643	313.86847	-982.06592	1159.51074	94.47393	-1039.86060	1198.71826	62.21762	-970.22986	1020.15619	60.59111	-1253.62109	1315.78333	610.90979	-1231.55652	1326.41028	451.53979	-1231.98669	1404.17664	291.75253	-1179.56543	1446.88916	88.86732	-1122.09998	1489.47314	54.00686	-1204.90002	1311.77185	41.18659	-1126.28809	1157.55493	1708.45874	-3101.82935	1973.13159	1023.44226	-3140.73071	2012.55334	1022.02814			 
4	0.030	-1034.70776	1163.63025	1668.67908	-1146.96191	1135.18555	1672.80884	-1058.21716	1280.27832	1630.48438	-1176.96619	1254.10669	1634.57764	-1084.99670	1324.51965	1437.94409	-1083.39819	1369.31348	1145.29126	-1093.50085	1183.62268	1364.41992	-1089.87891	1145.99255	1209.53528	-1157.48132	1390.58472	1245.89575	-928.18640	1229.99585	1399.09436	-836.30304	1269.65979	1218.06348	-829.30353	1301.81311	1075.30334	-800.28497	1287.78638	964.13885	-820.88721	1247.81958	829.84497	-785.50464	1295.10999	842.32471	-780.39655	1267.11304	761.52563	-1240.31775	1255.39417	1393.52991	-1346.23035	1306.95398	1195.90332	-1364.16260	1289.98462	1072.08630	-1405.49976	1231.05713	969.31024	-1404.91858	1115.51697	887.23083	-1436.43250	1161.91248	873.37866	-1449.90881	1101.10620	817.13593	-989.11371	1187.31995	940.73108	-1206.30920	1212.28113	937.16229	-1019.19122	1378.06274	946.83636	-1162.23145	1393.59290	954.41992	-926.37549	1120.03601	628.16260	-944.42249	1093.09021	496.10339	-933.53271	1127.60632	310.98138	-983.02966	1130.87134	90.07380	-1040.36365	1168.94153	55.95695	-972.30743	989.53156	63.80298	-1254.48901	1310.11401	610.61542	-1232.17029	1322.53015	451.15717	-1232.50342	1401.86487	292.27481	-1179.68274	1446.39868	89.70510	-1122.38892	1488.84961	55.16775	-1205.00085	1311.66870	41.17783	-1125.90405	1148.06555	1707.50793	-3101.90234	1973.20752	1023.35291	-3140.67407	2012.51160	1022.01147			 
5	0.040	-1034.63098	1154.39673	1667.54968	-1146.90088	1125.60974	1671.90417	-1058.53247	1270.92188	1629.42383	-1177.24573	1244.43823	1633.74402	-1085.83398	1315.15088	1436.97913	-1084.48315	1360.32874	1144.45020	-1093.93738	1174.24316	1363.22620	-1090.50940	1136.94727	1208.44714	-1158.90747	1381.09253	1245.20105	-928.71478	1221.17737	1397.88794	-836.99347	1262.63989	1217.19446	-830.07544	1295.84241	1074.59058	-800.64429	1283.15662	963.55804	-820.36530	1244.23523	828.95667	-785.67908	1291.81921	841.82288	-780.05145	1264.37610	760.74188	-1240.84351	1245.42175	1392.88232	-1347.71875	1296.07739	1195.64868	-1366.12219	1278.79724	1071.92346	-1407.64832	1218.62769	969.89832	-1406.76514	1102.16943	889.12598	-1438.63965	1148.24292	874.87579	-1452.13452	1086.69385	819.25775	-990.28363	1177.94019	939.74237	-1207.62073	1203.36548	936.15656	-1020.25391	1368.86194	945.95361	-1163.15149	1384.57312	953.59576	-926.74310	1113.73474	625.75616	-945.43744	1086.30823	494.20886	-934.23083	1112.47485	308.44910	-983.70148	1103.54114	87.01349	-1040.98596	1139.85376	50.78605	-974.03339	960.43170	67.67781	-1255.51709	1304.22876	610.32574	-1232.80554	1318.41907	450.84097	-1232.81201	1399.35156	292.83762	-1179.94836	1445.88098	90.62046	-1122.37781	1489.07385	56.84372	-1205.15112	1311.56165	41.13115	-1126.22595	1138.26636	1706.67090	-3101.99414	1972.95093	1023.80450	-3140.60645	2012.57739	1021.98517			 
6	0.050	-1034.34583	1145.08118	1666.35657	-1146.54382	1115.97278	1670.93384	-1058.71704	1261.53772	1628.32495	-1177.38367	1234.73853	1632.84033	-1086.48730	1305.74487	1436.01025	-1085.37463	1351.09705	1143.44299	-1094.41394	1164.77563	1362.08179	-1091.02698	1127.78979	1207.23938	-1160.07959	1371.52258	1244.45337	-929.20056	1212.17126	1396.63721	-837.55420	1255.48645	1216.32349	-830.82288	1289.82617	1073.97107	-800.88019	1278.30566	962.94269	-819.97412	1240.03979	827.99042	-785.43610	1287.75049	841.32623	-779.65723	1261.44019	760.04529	-1241.41541	1235.27747	1392.24316	-1348.99817	1285.10437	1195.41833	-1367.82788	1267.74731	1071.72144	-1409.62610	1206.31677	970.47211	-1408.52917	1089.09155	890.81549	-1440.68872	1134.94617	876.21283	-1454.13281	1072.71484	821.49487	-991.39905	1168.39368	938.67401	-1208.78564	1194.33203	935.15399	-1021.08160	1359.53748	944.98596	-1163.85779	1375.40283	952.66516	-926.91986	1107.65894	623.10913	-946.40198	1079.24524	492.23779	-934.84662	1097.12305	306.21906	-984.27100	1077.17554	84.96474	-1041.17822	1112.33301	47.30457	-975.52838	933.15558	72.37048	-1256.43750	1298.23547	610.08405	-1233.63562	1314.22986	450.82806	-1233.07361	1396.66443	293.53220	-1180.25500	1445.41150	91.68863	-1122.65820	1488.44604	58.32058	-1205.30835	1311.45288	41.10407	-1125.53979	1128.92749	1705.58203	-3101.83252	1973.20532	1023.24847	-3140.49048	2012.58008	1022.03571			 
7	0.060	-1034.02466	1135.76208	1665.20801	-1146.16028	1106.35840	1669.89783	-1058.73767	1252.10266	1627.17615	-1177.35144	1225.07422	1631.94495	-1086.95020	1296.29028	1434.97705	-1086.03491	1341.61926	1142.35339	-1094.64587	1155.34290	1360.98987	-1091.48596	1118.57703	1206.00269	-1161.08606	1361.94043	1243.66077	-929.41608	1203.13184	1395.33105	-837.97009	1248.13062	1215.36768	-831.53009	1283.40735	1073.22974	-801.05139	1273.21484	962.31592	-819.30084	1235.19385	827.22308	-785.90656	1283.80139	840.69183	-779.38220	1257.83118	759.38202	-1241.70654	1225.22266	1391.53369	-1350.14539	1274.28064	1195.27893	-1369.30627	1256.81592	1071.46326	-1411.12976	1194.39038	970.74945	-1409.93018	1076.40515	892.31812	-1442.32397	1121.92810	877.35175	-1455.81799	1059.11658	823.30530	-992.26514	1158.54602	937.44543	-1209.75305	1185.25879	934.24298	-1021.71899	1350.01611	943.92102	-1164.33459	1366.19104	951.61902	-926.86121	1101.64880	620.30640	-947.22009	1072.15076	490.35181	-935.29901	1082.24316	304.57953	-984.88489	1052.46631	83.97662	-1041.70776	1086.26282	44.91202	-976.81708	907.68628	77.00900	-1257.08508	1291.99841	609.79468	-1234.46936	1309.73474	450.60934	-1233.42542	1394.04211	294.49951	-1180.44238	1444.66089	92.90878	-1122.75452	1488.58533	60.17007	-1205.44836	1311.36877	41.12596	-1125.24146	1119.31226	1704.52271	-3101.91870	1973.20959	1023.21533	-3140.68896	2012.57458	1022.07886			 
